PathFileType	4	(X/Y/Z)	/Users/itak/Documents/Research/Walk-IL/dataset/trc/00308_00010.trc
DataRate	CameraRate	NumFrames	NumMarkers	Units	OrigDataRate	OrigDataStartFrame	OrigNumFrames
100.000000	100.000000	4	53	mm	100.000000	309	495
Frame#	Time	RPSI			LPSI			L3			STRN			T10			C7			CLAV			RBAK			LBAK			LSHO			LUPA			LAEL			LAOL			LWTS			LWPS			LFRA			LIFD			LHPS			LHTS			RSHO			RUPA			RAEL			RAOL			RWTS			RWPS			RFRA			RIFD			RHTS			RHPS			RBHD			LFHD			RFHD			LBHD			LHIP			RHIP			RASI			LASI			LKNE			LTHI			LANK			LTIP			LTOE			LMT1			LMT5			LHEE			RKNE			RTHI			RANK			RTIP			RTOE			RMT1			RMT5			RHEE			
		X1	Y1	Z1	X2	Y2	Z2	X3	Y3	Z3	X4	Y4	Z4	X5	Y5	Z5	X6	Y6	Z6	X7	Y7	Z7	X8	Y8	Z8	X9	Y9	Z9	X10	Y10	Z10	X11	Y11	Z11	X12	Y12	Z12	X13	Y13	Z13	X14	Y14	Z14	X15	Y15	Z15	X16	Y16	Z16	X17	Y17	Z17	X18	Y18	Z18	X19	Y19	Z19	X20	Y20	Z20	X21	Y21	Z21	X22	Y22	Z22	X23	Y23	Z23	X24	Y24	Z24	X25	Y25	Z25	X26	Y26	Z26	X27	Y27	Z27	X28	Y28	Z28	X29	Y29	Z29	X30	Y30	Z30	X31	Y31	Z31	X32	Y32	Z32	X33	Y33	Z33	X34	Y34	Z34	X35	Y35	Z35	X36	Y36	Z36	X37	Y37	Z37	X38	Y38	Z38	X39	Y39	Z39	X40	Y40	Z40	X41	Y41	Z41	X42	Y42	Z42	X43	Y43	Z43	X44	Y44	Z44	X45	Y45	Z45	X46	Y46	Z46	X47	Y47	Z47	X48	Y48	Z48	X49	Y49	Z49	X50	Y50	Z50	X51	Y51	Z51	X52	Y52	Z52	X53	Y53	Z53	

310	3.09	22.4279670715332	975.1678466796875	157.3014373779297	179.2485198974609	970.9356689453125	78.99504089355469	121.8328399658203	1040.441650390625	122.5086517333984	217.9137420654297	1220.489868164062	354.2746887207031	125.2715606689453	1153.033447265625	105.6057586669922	151.4989318847656	1398.483032226562	139.1954193115234	196.3253784179688	1320.194946289062	292.7964172363281	68.65428924560547	1257.652221679688	115.6230545043945	247.1549377441406	1365.507568359375	92.6214599609375	323.0559387207031	1373.161254882812	163.2480316162109	388.3929748535156	1257.31689453125	122.6214141845703	426.4920654296875	1059.839477539062	144.0266723632812	351.5321350097656	1031.373901367188	110.1175918579102	444.8131103515625	879.341552734375	295.2640991210938	491.6260986328125	856.4300537109375	245.2255401611328	454.6257934570312	967.0419311523438	179.4119720458984	482.4085998535156	713.9524536132812	363.6561889648438	506.5424499511719	777.8201293945312	281.4985656738281	489.5124206542969	800.6508178710938	341.0934448242188	20.85996627807617	1373.696899414062	249.7860260009766	-44.11252593994141	1315.441284179688	259.0863342285156	-98.86372375488281	1054.253784179688	237.9343872070312	-12.62189865112305	1044.447143554688	200.2297210693359	-60.75812530517578	819.4846801757812	308.3791809082031	-139.1282806396484	826.833251953125	271.1103820800781	-116.7681198120117	988.296142578125	256.6630859375	-80.13140106201172	633.3111572265625	275.7682800292969	-88.56430816650391	697.586669921875	314.8055419921875	-145.7871246337891	712.4263916015625	274.767333984375	95.10665893554688	1546.366577148438	153.8166656494141	233.8246765136719	1616.03076171875	300.78076171875	143.4352264404297	1611.963500976562	313.4984741210938	240.5851135253906	1543.8955078125	139.720703125	294.3847961425781	919.0003051757812	92.44211578369141	-18.52520751953125	929.9885864257812	297.9213256835938	102.1757507324219	933.412109375	365.5424499511719	320.2480773925781	920.1653442382812	237.9655303955078	255.6023559570312	456.4947204589844	86.17108917236328	284.2138366699219	596.6255493164062	100.6810913085938	70.14865875244141	127.8947525024414	-179.5208129882812	170.5601196289062	289.5863037109375	-57.80561065673828	81.30556488037109	33.15976715087891	-4.23523473739624	20.18222999572754	50.60586166381836	-39.90612411499023	117.2280883789062	48.96617889404297	-98.53121948242188	3.790303468704224	162.5751495361328	-183.2987976074219	129.8838043212891	482.0478820800781	410.7385864257812	46.44876861572266	734.7630615234375	389.0095825195312	177.9648895263672	39.35147476196289	384.3444519042969	165.1949005126953	361.4281311035156	427.3695373535156	323.4578857421875	43.91477966308594	525.34228515625	327.734130859375	39.5263557434082	455.6185607910156	213.2913055419922	33.24652481079102	484.5317687988281	195.2522277832031	33.99993896484375	315.7362060546875	
311	3.1	26.52530670166016	976.3184204101562	166.0983428955078	183.3330841064453	971.4514770507812	87.93459320068359	125.902717590332	1041.798095703125	130.9005126953125	221.3732147216797	1222.22705078125	363.3687133789062	129.7194519042969	1154.552612304688	114.1409378051758	155.7081146240234	1399.726684570312	147.6129760742188	199.8230743408203	1321.882934570312	301.5319519042969	73.12850189208984	1258.842407226562	123.9728393554688	251.7202453613281	1367.147216796875	101.6405868530273	327.1264038085938	1375.1142578125	172.8515930175781	392.9859008789062	1259.529296875	132.6367797851562	429.4966125488281	1061.091430664062	152.6056213378906	354.45849609375	1033.966186523438	117.8598709106445	443.4556884765625	876.802001953125	300.4725036621094	490.8848876953125	854.679931640625	250.8217620849609	456.1476745605469	967.3897094726562	186.9234924316406	476.64697265625	708.6947631835938	364.3348693847656	503.8873901367188	774.6464233398438	284.9340515136719	485.7719116210938	795.849609375	344.7841186523438	24.7504768371582	1375.005981445312	257.7894287109375	-40.19729995727539	1316.899291992188	266.9654235839844	-94.68946075439453	1055.771850585938	245.2954711914062	-8.30943489074707	1046.188232421875	207.7981567382812	-55.91609954833984	820.7938842773438	316.1405334472656	-134.2784423828125	828.0218505859375	278.7886962890625	-112.30224609375	989.6766357421875	264.1249084472656	-74.12644195556641	634.8960571289062	282.75830078125	-82.75013732910156	698.92578125	322.1676635742188	-140.1951141357422	713.4719848632812	282.1639709472656	98.28511810302734	1547.1474609375	161.7424468994141	236.3073425292969	1617.693725585938	309.0486450195312	145.8400115966797	1613.192504882812	321.3929138183594	243.9700927734375	1545.291870117188	148.1498260498047	298.4109497070312	919.6279907226562	101.8976287841797	-14.67356300354004	931.7833862304688	307.0357971191406	105.7772979736328	935.1292114257812	374.51318359375	324.1817932128906	921.9833374023438	247.7027740478516	266.27392578125	455.8309326171875	99.646728515625	292.4158325195312	596.4844360351562	113.0035934448242	76.82644653320312	135.532470703125	-172.616455078125	179.3348236083984	292.724853515625	-47.4500846862793	81.87836456298828	32.75467681884766	-3.978182554244995	22.22629165649414	53.45969772338867	-37.94559097290039	119.9846954345703	50.30666351318359	-95.89424896240234	11.80207824707031	172.7752838134766	-174.3948364257812	132.8822784423828	482.2338562011719	417.1551513671875	50.18660354614258	735.377685546875	397.2479858398438	178.1042633056641	39.49201965332031	384.5692443847656	167.9691314697266	361.1230163574219	432.3911437988281	323.7967224121094	42.91975402832031	525.6068115234375	327.9859619140625	39.20647811889648	455.7973022460938	213.4737091064453	33.13314056396484	484.7048950195312	195.2348022460938	34.16056060791016	315.8858947753906	
312	3.11	30.39237976074219	977.3772583007812	174.8637390136719	187.0838317871094	971.7716674804688	96.63401794433594	129.7111358642578	1043.025146484375	139.2643585205078	224.8749389648438	1223.711791992188	372.2845458984375	133.9049224853516	1155.900268554688	122.6357116699219	159.8327026367188	1400.822265625	155.9571990966797	203.3502960205078	1323.36767578125	310.1710815429688	77.44878387451172	1259.86669921875	132.2841949462891	256.1492004394531	1368.560180664062	110.5105209350586	331.1318054199219	1376.840942382812	182.2440795898438	397.5015869140625	1261.49462890625	142.4766235351562	432.6014099121094	1062.198608398438	161.2316589355469	357.6038818359375	1036.310424804688	125.4740829467773	442.0702209472656	874.1152954101562	305.4020385742188	490.2537536621094	852.837890625	256.2741394042969	457.7783203125	967.5983276367188	194.3919677734375	470.73193359375	703.4067993164062	364.3766174316406	501.2897644042969	771.4132080078125	288.0621337890625	481.8882446289062	790.9114379882812	348.0595092773438	28.62813758850098	1376.167114257812	265.7975158691406	-36.32287979125977	1318.234619140625	274.88037109375	-90.73168182373047	1057.1787109375	252.7308959960938	-4.283061504364014	1047.808471679688	215.3132476806641	-51.08703231811523	821.9996948242188	324.2396240234375	-129.4292297363281	829.0545043945312	286.8543701171875	-107.8913803100586	990.9017333984375	271.7987365722656	-67.92871856689453	636.4387817382812	290.5419006347656	-76.67913818359375	700.296875	330.1320190429688	-134.4346771240234	714.3622436523438	290.2323608398438	101.455322265625	1547.835083007812	169.6487274169922	238.8412322998047	1619.170288085938	317.2888488769531	148.2673187255859	1614.228271484375	329.2246704101562	247.3611602783203	1546.57373046875	156.5194854736328	302.134521484375	920.07958984375	111.0303726196289	-10.847900390625	933.381103515625	316.1170043945312	109.4050521850586	936.5381469726562	383.3185119628906	327.9884643554688	923.5686645507812	256.9513549804688	277.2597045898438	455.107177734375	113.4927139282227	300.7955322265625	596.2623901367188	125.4250564575195	84.46412658691406	143.3030090332031	-164.7868957519531	188.7627716064453	295.6153259277344	-36.26328659057617	82.63874816894531	32.1367073059082	-3.404424428939819	24.70430374145508	56.77113342285156	-35.68975830078125	123.1904983520508	52.01523971557617	-92.79013824462891	20.94962120056152	182.9686431884766	-164.7092590332031	135.6155090332031	482.1636657714844	423.1134643554688	53.73552703857422	735.7532958984375	405.3030090332031	178.2673950195312	39.62747955322266	384.7010498046875	170.4131469726562	360.6425476074219	437.023681640625	324.0869750976562	42.17873382568359	525.8193969726562	328.232666015625	38.94797515869141	455.9542236328125	213.6459808349609	33.06658935546875	484.8299255371094	195.2825622558594	34.2955436706543	315.9547424316406	
313	3.12	34.07498931884766	978.348876953125	183.5314483642578	190.5817413330078	971.8861083984375	105.0787658691406	133.3262939453125	1044.088989257812	147.595458984375	228.4273223876953	1224.916625976562	380.9974975585938	137.8612365722656	1157.053955078125	131.071044921875	163.8724517822266	1401.769897460938	164.2313232421875	206.9238586425781	1324.618408203125	318.7043762207031	81.60748291015625	1260.719482421875	140.544921875	260.4335327148438	1369.733276367188	119.2204971313477	335.0879821777344	1378.304809570312	191.3998413085938	401.9024658203125	1263.147338867188	152.0870819091797	435.7685852050781	1063.117797851562	169.8851776123047	360.9411926269531	1038.34326171875	132.9376983642578	440.7135009765625	871.2958374023438	310.0736694335938	489.7623291015625	850.9000244140625	261.5948181152344	459.5077819824219	967.62744140625	201.8137054443359	464.7880859375	698.1616821289062	363.8426513671875	498.7979431152344	768.1425170898438	290.9195861816406	477.9448547363281	785.8916625976562	350.9396057128906	32.48433685302734	1377.158203125	273.8047790527344	-32.49734497070312	1319.411254882812	282.8204650878906	-86.98206329345703	1058.426513671875	260.2597045898438	-0.5392498970031738	1049.260498046875	222.7883911132812	-46.27349090576172	823.0742797851562	332.6380920410156	-124.57177734375	829.904541015625	295.2981872558594	-103.5621032714844	991.9342651367188	279.6767883300781	-61.60261535644531	637.8925170898438	299.1034240722656	-70.41083526611328	701.6613159179688	338.6705627441406	-128.53955078125	715.0818481445312	298.9601440429688	104.6386032104492	1548.424682617188	177.5249786376953	241.4373931884766	1620.464111328125	325.4915771484375	150.7292022705078	1615.07763671875	336.9836730957031	250.7598266601562	1547.73291015625	164.8253173828125	305.6068725585938	920.3042602539062	119.8441696166992	-7.075455665588379	934.7681884765625	325.0635070800781	113.0477676391602	937.6476440429688	391.9367065429688	331.6872253417969	924.8764038085938	265.75732421875	288.4163818359375	454.3832092285156	127.7192764282227	309.258056640625	595.9857177734375	137.9196472167969	93.09580230712891	151.1119537353516	-156.0017700195312	198.7935333251953	298.2421875	-24.24403953552246	83.67574310302734	31.32001304626465	-2.36319375038147	27.7165412902832	60.57551193237305	-33.03351974487305	126.9302062988281	54.1325798034668	-89.09239959716797	31.22882461547852	193.0363616943359	-154.2734069824219	138.1095581054688	481.8925476074219	428.6383666992188	57.1019172668457	735.9501342773438	413.1564636230469	178.4555816650391	39.76393890380859	384.75634765625	172.5095825195312	360.0245666503906	441.273193359375	324.3591613769531	41.63011932373047	525.987060546875	328.4757995605469	38.72571563720703	456.0857238769531	213.8207855224609	33.04361724853516	484.9071960449219	195.3917236328125	34.4200439453125	315.9581298828125	
